# xmcd
#
# Track frame offsets:
#   150
#   21187
#   37335
#   52537
#   68705
#   82842
#   99460
#   117427
#   127862
#   145610
#   160750
#   176557
#
# Disc length: 2621 seconds
#
# Revision: 0
# Processed by: cddbd v1.5.2PL0 Copyright (c) Steve Scherf et al.
# Submitted via: uFREEDB ActiveX Control 1.5
#
DISCID=8f0a3b0c
DTITLE=Raul Seixas - Zé Ramalho Canta Raul Seixas
DYEAR=1900
DGENRE=Classical
TTITLE0=As Aventuras de RS na Cidade de Thor
TTITLE1=Metamorfose Ambulante
TTITLE2=O Trem das Sete
TTITLE3=Ouro de Tolo
TTITLE4=SOS
TTITLE5=Dentadura Postiça
TTITLE6=How Coul I Know
TTITLE7=Preludio
TTITLE8=Voce Ainda Pode Sonhar
TTITLE9=Planos de Papel
TTITLE10=Para Raul
TTITLE11=Eu Nasci a 10000 Anos Atras
EXTD=
EXTT0=
EXTT1=
EXTT2=
EXTT3=
EXTT4=
EXTT5=
EXTT6=
EXTT7=
EXTT8=
EXTT9=
EXTT10=
EXTT11=
PLAYORDER=
